<?xml version="1.0" standalone="no"?>
<!DOCTYPE svg PUBLIC "-//W3C//DTD SVG 20010904//EN"
 "http://www.w3.org/TR/2001/REC-SVG-20010904/DTD/svg10.dtd">
<svg version="1.0" xmlns="http://www.w3.org/2000/svg"
 width="1051.000000pt" height="1051.000000pt" viewBox="0 0 1051.000000 1051.000000"
 preserveAspectRatio="xMidYMid meet">
<metadata>
Created by potrace 1.11, written by Peter Selinger 2001-2013
</metadata>
<g transform="translate(0.000000,1051.000000) scale(0.100000,-0.100000)"
fill="#000000" stroke="none">
<path d="M4865 9734 c-198 -145 -429 -315 -514 -377 -321 -235 -378 -277 -456
-334 -44 -33 -300 -221 -570 -418 -269 -197 -544 -398 -610 -447 -66 -48 -131
-96 -144 -105 -85 -61 -129 -94 -151 -111 -14 -10 -104 -76 -200 -146 -96 -70
-185 -135 -197 -144 -12 -9 -31 -24 -43 -32 -12 -8 -41 -29 -64 -46 -22 -17
-212 -156 -421 -309 -209 -153 -418 -306 -465 -341 -47 -34 -184 -134 -305
-223 -121 -88 -224 -164 -230 -168 -5 -5 -65 -48 -132 -97 -67 -49 -120 -94
-118 -100 2 -6 29 -90 61 -186 32 -96 59 -177 59 -180 2 -10 1347 -4056 1355
-4075 5 -11 77 -227 160 -480 83 -253 155 -469 160 -480 5 -11 23 -65 40 -120
17 -55 35 -109 40 -120 5 -11 21 -57 35 -103 l27 -83 1671 6 c920 3 2131 8
2692 10 561 2 1194 4 1406 5 l385 1 89 272 c49 150 89 274 90 277 0 3 5 19 12
35 6 17 36 107 66 200 50 154 157 481 449 1375 55 168 125 382 156 475 31 94
56 172 57 175 1 5 183 561 245 750 21 63 95 291 165 505 70 215 149 455 175
535 26 80 105 321 175 535 70 215 152 464 182 555 46 140 51 166 39 175 -53
36 -138 97 -193 138 -35 26 -68 47 -73 47 -4 0 -10 4 -12 8 -1 5 -100 78 -218
162 -118 85 -219 158 -225 163 -5 4 -66 48 -135 97 -69 49 -129 92 -135 97 -5
5 -32 24 -60 44 -365 263 -1106 797 -1127 813 -14 12 -61 46 -105 76 -71 50
-344 246 -403 290 -26 19 -148 107 -210 150 -19 14 -37 27 -40 30 -3 3 -18 14
-35 26 -56 39 -540 387 -590 424 -27 20 -189 137 -360 260 -170 123 -335 242
-366 264 -31 23 -76 55 -100 72 -24 17 -87 62 -139 100 -52 38 -105 76 -116
84 -12 8 -98 70 -192 138 -93 67 -171 122 -173 121 -2 0 -166 -119 -364 -265z"/>
</g>
</svg>
