<?xml version="1.0" standalone="no"?>
<!DOCTYPE svg PUBLIC "-//W3C//DTD SVG 20010904//EN"
 "http://www.w3.org/TR/2001/REC-SVG-20010904/DTD/svg10.dtd">
<svg version="1.0" xmlns="http://www.w3.org/2000/svg"
 width="1051.000000pt" height="1051.000000pt" viewBox="0 0 1051.000000 1051.000000"
 preserveAspectRatio="xMidYMid meet">
<metadata>
Created by potrace 1.11, written by Peter Selinger 2001-2013
</metadata>
<g transform="translate(0.000000,1051.000000) scale(0.100000,-0.100000)"
fill="#000000" stroke="none">
<path d="M5210 10069 c-30 -22 -262 -192 -515 -377 -254 -185 -501 -366 -550
-402 -49 -36 -121 -88 -160 -117 -38 -28 -81 -60 -95 -70 -87 -63 -596 -436
-755 -553 -104 -77 -311 -228 -460 -336 -252 -184 -395 -289 -455 -334 -14
-10 -120 -88 -235 -172 -116 -84 -222 -162 -237 -173 -14 -11 -36 -27 -48 -35
-12 -8 -74 -54 -138 -101 -107 -79 -921 -675 -1112 -814 -45 -32 -91 -67 -102
-77 -12 -10 -24 -18 -27 -18 -3 -1 -17 -9 -30 -20 l-23 -20 172 -522 c95 -288
199 -604 232 -703 33 -99 61 -184 62 -190 2 -5 6 -17 9 -25 3 -8 103 -312 222
-675 119 -363 227 -691 240 -730 22 -67 310 -941 601 -1825 75 -228 195 -593
268 -810 l131 -395 250 2 c1282 9 2155 15 2595 18 832 5 3198 23 3270 24 l36
1 34 107 c18 60 34 110 35 113 2 10 137 426 145 450 5 14 39 120 75 235 37
116 89 280 117 365 27 85 66 205 85 265 19 61 42 130 50 155 8 25 71 221 140
435 130 407 165 515 308 960 48 149 88 275 89 280 3 10 81 253 181 565 29 91
92 287 140 435 47 149 90 281 95 295 5 14 39 120 75 235 37 116 73 228 80 250
8 22 46 141 86 265 39 124 87 272 105 329 35 108 40 131 26 131 -4 0 -19 9
-32 19 -14 11 -104 77 -200 147 -96 70 -215 157 -265 194 -49 36 -253 185
-453 331 -200 145 -395 288 -435 317 -40 29 -88 63 -107 77 -19 13 -111 80
-205 149 -93 68 -181 133 -195 143 -14 10 -144 105 -290 211 -146 106 -276
201 -290 212 -22 16 -171 125 -225 164 -48 35 -604 440 -645 470 -25 18 -88
65 -140 103 -52 39 -266 194 -475 346 -209 152 -384 280 -390 284 -5 5 -59 44
-120 88 -60 44 -114 83 -120 88 -5 4 -59 43 -120 87 -60 44 -114 83 -120 87
-5 5 -35 26 -65 48 -30 22 -57 43 -60 47 -3 4 -30 -11 -60 -33z"/>
</g>
</svg>
