<?xml version="1.0" standalone="no"?>
<!DOCTYPE svg PUBLIC "-//W3C//DTD SVG 20010904//EN"
 "http://www.w3.org/TR/2001/REC-SVG-20010904/DTD/svg10.dtd">
<svg version="1.0" xmlns="http://www.w3.org/2000/svg"
 width="1040.000000pt" height="1040.000000pt" viewBox="0 0 1040.000000 1040.000000"
 preserveAspectRatio="xMidYMid meet">
<metadata>
Created by potrace 1.11, written by Peter Selinger 2001-2013
</metadata>
<g transform="translate(0.000000,1040.000000) scale(0.100000,-0.100000)"
fill="#000000" stroke="none">
<path d="M5194 9997 c-6 -7 -21 -19 -34 -27 -12 -8 -32 -22 -44 -31 -11 -9
-136 -100 -276 -202 -140 -102 -259 -190 -265 -194 -9 -8 -79 -59 -400 -293
-56 -41 -113 -83 -126 -93 -13 -9 -64 -47 -114 -83 -49 -36 -144 -105 -210
-154 -119 -88 -267 -196 -546 -399 -79 -58 -146 -108 -149 -112 -3 -3 -19 -15
-35 -25 -17 -11 -67 -46 -110 -78 -142 -105 -176 -130 -450 -330 -148 -109
-283 -207 -299 -219 -15 -12 -66 -49 -112 -82 -75 -54 -542 -396 -819 -600
-60 -45 -148 -109 -195 -143 -231 -168 -648 -474 -674 -494 -15 -13 -37 -27
-47 -32 -11 -5 -19 -14 -19 -19 0 -10 80 -256 492 -1507 72 -217 165 -501 208
-630 42 -129 160 -485 260 -790 101 -305 185 -559 186 -565 1 -5 45 -138 97
-295 52 -157 172 -521 267 -810 95 -289 210 -640 257 -780 46 -140 86 -262 88
-270 2 -8 16 -50 32 -94 l28 -79 310 2 c171 1 540 4 820 6 281 2 884 6 1340
10 761 5 1140 8 2815 20 316 2 627 4 690 5 l115 0 68 213 c38 116 102 318 143
447 42 129 88 273 104 320 15 47 55 173 89 280 34 107 66 206 71 220 11 30
134 413 135 420 0 3 23 73 50 155 27 83 50 155 51 160 7 25 62 196 159 500 59
182 124 384 145 450 36 113 89 276 182 565 22 69 65 202 95 295 30 94 75 233
99 310 25 77 47 145 48 150 1 6 15 48 30 95 15 47 66 204 112 350 47 146 89
276 94 290 5 14 39 120 75 235 37 116 75 235 86 266 22 64 24 95 7 102 -10 4
-224 157 -393 281 -11 8 -45 33 -75 55 -30 22 -59 44 -65 48 -5 5 -93 68 -195
142 -102 74 -207 151 -235 171 -69 51 -227 166 -305 223 -36 25 -70 51 -77 57
-6 5 -30 22 -51 37 -22 16 -178 129 -347 253 -170 124 -327 239 -350 255 -24
17 -87 62 -141 102 -313 229 -687 502 -809 590 -77 56 -144 106 -150 110 -5 5
-116 85 -245 179 -129 94 -291 212 -360 263 -69 50 -195 142 -280 203 -85 62
-159 116 -165 120 -10 9 -100 75 -144 106 -68 49 -282 205 -406 297 -107 79
-118 85 -131 72z"/>
</g>
</svg>
